<svg
  xmlns="http://www.w3.org/2000/svg"
  viewBox="0 0 3400 3400"
  fill="currentColor"
  style="color: #292b27"
>
  <rect width="3400" height="3400" fill="#faf9f6" />
  <g transform="translate(-25 675)">
    <path
      transform="translate(190 1740) scale(1 -1)"
      d="M1408.50 1240.50L1379.02 1240.50L945.02 31.50L906.68 31.50L395.68 1265.50L368.50 1265.50L368.50 409.99L368.54 397.79L368.66 385.88L368.85 374.25L369.12 362.92L369.47 351.88L369.90 341.13L370.41 330.68L371.00 320.51L371.66 310.63L372.40 301.05L373.23 291.75L374.13 282.74L375.11 274.02L376.17 265.59L377.31 257.45L378.53 249.59L379.83 242.01L381.22 234.72L382.69 227.72L384.24 221.00L385.87 214.53L387.59 208.24L389.39 202.12L391.29 196.17L393.28 190.39L395.35 184.79L397.52 179.36L399.78 174.10L402.13 169.01L404.57 164.10L407.11 159.36L409.75 154.79L412.48 150.40L415.31 146.18L418.24 142.13L421.27 138.27L424.40 134.58L427.63 131.07L430.97 127.74L434.28 124.71L436.78 122.46L439.64 120.12L442.72 117.82L446.01 115.57L449.52 113.36L453.25 111.18L457.19 109.03L461.35 106.90L465.73 104.80L470.33 102.72L475.15 100.66L480.20 98.61L485.47 96.59L490.97 94.58L496.70 92.58L502.65 90.60L508.83 88.63L515.24 86.68L521.88 84.73L528.73 82.81L535.55 80.94L542.12 79.17L548.45 77.49L554.55 75.89L560.40 74.39L566.03 72.97L571.41 71.65L576.56 70.41L581.48 69.26L586.16 68.20L590.61 67.23L594.82 66.35L598.81 65.56L602.57 64.86L606.10 64.24L609.42 63.71L612.52 63.28L615.41 62.93L618.10 62.67L612.50 63.04L612.50 8.50L56.50 8.50L56.50 63.25L53.32 62.96L57.92 63.42L62.54 63.91L67.17 64.44L71.83 65.00L76.51 65.60L81.22 66.24L85.94 66.91L90.69 67.61L95.46 68.36L100.25 69.13L105.06 69.94L109.89 70.79L114.75 71.67L119.63 72.59L124.53 73.54L129.45 74.53L134.39 75.55L139.36 76.61L144.36 77.71L149.37 78.86L154.28 80.08L159.09 81.35L163.79 82.68L168.39 84.08L172.87 85.53L177.25 87.04L181.52 88.61L185.69 90.25L189.74 91.95L193.69 93.70L197.53 95.52L201.27 97.41L204.90 99.35L208.41 101.37L211.82 103.44L215.13 105.59L218.32 107.79L221.40 110.07L224.36 112.40L228.03 115.46L231.62 118.72L235.09 122.14L238.44 125.71L241.66 129.44L244.76 133.32L247.74 137.36L250.59 141.54L253.32 145.87L255.92 150.36L258.40 154.98L260.76 159.76L263.00 164.68L265.11 169.74L267.11 174.95L268.98 180.30L270.74 185.80L272.37 191.43L273.89 197.22L275.30 203.14L276.60 209.33L277.84 215.89L279.00 222.82L280.10 230.13L281.12 237.81L282.08 245.87L282.97 254.32L283.79 263.14L284.54 272.34L285.23 281.93L285.85 291.90L286.41 302.26L286.90 313.00L287.32 324.13L287.68 335.64L287.98 347.54L288.21 359.82L288.37 372.49L288.47 385.55L288.50 398.99L288.50 1125.03L288.46 1131.35L288.35 1137.58L288.16 1143.70L287.89 1149.72L287.54 1155.62L287.12 1161.41L286.62 1167.09L286.05 1172.66L285.39 1178.12L284.66 1183.48L283.85 1188.72L282.96 1193.85L281.99 1198.87L280.94 1203.79L279.82 1208.59L278.61 1213.29L277.32 1217.88L275.95 1222.36L274.49 1226.73L272.96 1230.97L271.36 1235.11L269.70 1239.16L267.96 1243.14L266.16 1247.05L264.28 1250.89L262.33 1254.65L260.32 1258.33L258.23 1261.94L256.07 1265.48L253.84 1268.94L251.54 1272.33L249.17 1275.64L246.73 1278.87L244.21 1282.03L241.63 1285.11L238.98 1288.11L236.25 1291.04L233.46 1293.88L230.59 1296.65L227.63 1299.37L224.29 1302.21L220.93 1304.93L217.50 1307.58L213.99 1310.15L210.41 1312.65L206.76 1315.07L203.04 1317.42L199.25 1319.70L195.39 1321.90L191.46 1324.02L187.46 1326.07L183.39 1328.05L179.25 1329.95L175.04 1331.77L170.77 1333.52L166.42 1335.20L162.01 1336.80L157.53 1338.33L152.98 1339.79L148.37 1341.16L143.77 1342.46L139.19 1343.71L134.61 1344.89L130.03 1346.02L125.46 1347.10L120.89 1348.12L116.33 1349.08L111.77 1349.99L107.21 1350.84L102.66 1351.63L98.12 1352.37L93.57 1353.05L89.03 1353.68L84.50 1354.25L79.97 1354.76L75.44 1355.22L70.92 1355.62L66.41 1355.97L61.89 1356.26L65.50 1356.07L65.50 1410.50L535.40 1410.50L997.99 331.11L1302.00 1242.13L1303.83 1246.89L1305.71 1251.87L1307.56 1256.88L1309.38 1261.91L1311.18 1266.96L1312.94 1272.04L1314.68 1277.13L1316.39 1282.25L1318.07 1287.39L1319.73 1292.56L1321.35 1297.74L1322.95 1302.95L1324.52 1308.18L1326.07 1313.43L1327.58 1318.71L1329.07 1324.01L1330.53 1329.33L1331.96 1334.67L1333.37 1340.03L1334.74 1345.41L1336.07 1350.71L1337.33 1355.82L1338.53 1360.76L1339.67 1365.52L1340.75 1370.11L1341.76 1374.52L1342.72 1378.76L1343.61 1382.82L1344.44 1386.72L1345.21 1390.44L1345.91 1393.99L1346.56 1397.36L1347.14 1400.57L1347.66 1403.62L1348.12 1406.49L1348.52 1409.21L1348.86 1411.76L1349.13 1414.17L1349.34 1416.42L1348.93 1410.50L1796.50 1410.50L1796.50 1356.16L1801.77 1356.37L1798.77 1356.22L1795.70 1356.02L1792.56 1355.79L1789.36 1355.53L1786.08 1355.23L1782.74 1354.90L1779.33 1354.53L1775.85 1354.12L1772.30 1353.68L1768.68 1353.21L1764.99 1352.70L1761.23 1352.15L1757.40 1351.57L1753.49 1350.95L1749.52 1350.30L1745.48 1349.62L1741.37 1348.90L1737.18 1348.14L1732.93 1347.35L1728.70 1346.55L1724.59 1345.75L1720.58 1344.96L1716.69 1344.17L1712.91 1343.38L1709.23 1342.60L1705.67 1341.82L1702.22 1341.05L1698.88 1340.28L1695.64 1339.52L1692.52 1338.75L1689.50 1338.00L1686.59 1337.24L1683.79 1336.49L1681.09 1335.74L1678.50 1334.99L1676.02 1334.25L1673.64 1333.51L1671.36 1332.77L1669.15 1332.01L1665.57 1330.68L1662.08 1329.25L1658.69 1327.73L1655.40 1326.12L1652.23 1324.40L1649.16 1322.60L1646.20 1320.69L1643.36 1318.69L1640.63 1316.58L1638.01 1314.38L1635.51 1312.09L1633.13 1309.69L1630.88 1307.20L1628.74 1304.62L1626.74 1301.94L1624.86 1299.17L1623.11 1296.31L1621.48 1293.37L1619.99 1290.34L1618.66 1287.28L1617.45 1284.25L1616.33 1281.25L1615.26 1278.22L1614.26 1275.17L1613.32 1272.09L1612.43 1268.99L1611.61 1265.86L1610.86 1262.71L1610.16 1259.53L1609.52 1256.32L1608.95 1253.10L1608.43 1249.85L1607.98 1246.57L1607.59 1243.28L1607.25 1239.95L1606.98 1236.61L1606.77 1233.24L1606.62 1229.85L1606.53 1226.44L1606.50 1223.04L1606.50 438.98L1606.53 433.19L1606.63 427.36L1606.79 421.50L1607.01 415.61L1607.29 409.70L1607.64 403.76L1608.05 397.80L1608.53 391.80L1609.07 385.79L1609.67 379.74L1610.34 373.67L1611.06 367.57L1611.86 361.45L1612.71 355.30L1613.63 349.12L1614.61 342.91L1615.65 336.68L1616.76 330.43L1617.93 324.14L1619.17 317.81L1620.51 311.44L1621.98 305.08L1623.58 298.77L1625.31 292.50L1627.16 286.28L1629.14 280.09L1631.24 273.95L1633.47 267.86L1635.82 261.81L1638.30 255.80L1640.91 249.84L1643.64 243.92L1646.49 238.05L1649.48 232.22L1652.58 226.43L1655.82 220.70L1659.17 215.00L1662.65 209.35L1666.26 203.75L1670.03 198.13L1674.16 192.46L1678.41 186.94L1682.79 181.52L1687.32 176.20L1691.99 170.99L1696.81 165.89L1701.77 160.89L1706.87 155.99L1712.11 151.20L1717.50 146.52L1723.02 141.94L1728.69 137.47L1734.50 133.10L1740.45 128.84L1746.53 124.68L1752.76 120.62L1759.13 116.68L1765.64 112.84L1772.28 109.10L1779.09 105.45L1786.15 101.92L1793.49 98.56L1801.07 95.39L1808.89 92.41L1816.96 89.62L1825.27 87.01L1833.81 84.58L1842.60 82.34L1851.64 80.28L1860.91 78.40L1870.43 76.70L1880.18 75.19L1890.19 73.85L1900.43 72.69L1910.91 71.72L1921.64 70.92L1932.62 70.30L1943.83 69.85L1955.29 69.59L1967.00 69.50L1978.05 69.59L1988.92 69.85L1999.63 70.30L2010.16 70.92L2020.51 71.72L2030.70 72.70L2040.71 73.85L2050.55 75.19L2060.22 76.70L2069.71 78.40L2079.03 80.27L2088.18 82.33L2097.15 84.56L2105.96 86.98L2114.58 89.58L2123.04 92.36L2131.32 95.32L2139.43 98.47L2147.36 101.80L2155.10 105.30L2162.64 108.94L2170.02 112.68L2177.23 116.54L2184.29 120.52L2191.20 124.61L2197.95 128.82L2204.54 133.14L2210.97 137.58L2217.25 142.14L2223.37 146.81L2229.33 151.59L2235.13 156.50L2240.77 161.52L2246.26 166.65L2251.58 171.90L2256.74 177.27L2261.75 182.75L2266.59 188.34L2271.27 194.06L2275.76 199.85L2279.89 205.38L2283.90 210.94L2287.78 216.52L2291.54 222.13L2295.18 227.76L2298.70 233.43L2302.10 239.12L2305.37 244.84L2308.53 250.59L2311.56 256.37L2314.47 262.17L2317.26 268.01L2319.93 273.87L2322.47 279.75L2324.90 285.67L2327.20 291.61L2329.37 297.58L2331.43 303.57L2333.36 309.60L2335.16 315.63L2336.86 321.66L2338.46 327.68L2339.97 333.71L2341.40 339.74L2342.75 345.77L2344.00 351.82L2345.17 357.87L2346.26 363.92L2347.25 369.98L2348.16 376.05L2348.99 382.12L2349.73 388.20L2350.38 394.28L2350.94 400.37L2351.42 406.46L2351.81 412.56L2352.11 418.66L2352.33 424.77L2352.46 430.88L2352.50 436.97L2352.50 1019.02L2352.46 1030.06L2352.34 1040.92L2352.14 1051.58L2351.86 1062.04L2351.49 1072.31L2351.05 1082.37L2350.53 1092.23L2349.92 1101.89L2349.23 1111.36L2348.47 1120.62L2347.62 1129.69L2346.69 1138.56L2345.68 1147.23L2344.58 1155.70L2343.41 1163.97L2342.15 1172.05L2340.81 1179.93L2339.39 1187.61L2337.88 1195.09L2336.29 1202.38L2334.62 1209.46L2332.86 1216.31L2331.03 1222.92L2329.11 1229.30L2327.11 1235.44L2325.03 1241.36L2322.86 1247.05L2320.61 1252.50L2318.26 1257.73L2315.83 1262.73L2313.30 1267.50L2310.68 1272.04L2307.95 1276.35L2305.13 1280.43L2302.20 1284.28L2299.17 1287.89L2296.03 1291.27L2292.77 1294.41L2289.40 1297.30L2285.99 1299.88L2282.19 1302.52L2278.31 1305.06L2274.31 1307.54L2270.18 1309.95L2265.93 1312.30L2261.56 1314.59L2257.06 1316.81L2252.45 1318.97L2247.70 1321.08L2242.84 1323.12L2237.85 1325.10L2232.74 1327.02L2227.51 1328.89L2222.15 1330.69L2216.67 1332.43L2211.07 1334.12L2205.34 1335.75L2199.49 1337.32L2193.51 1338.83L2187.44 1340.28L2181.40 1341.66L2175.53 1342.98L2169.79 1344.24L2164.20 1345.44L2158.75 1346.58L2153.43 1347.65L2148.26 1348.67L2143.23 1349.63L2138.33 1350.54L2133.57 1351.38L2128.96 1352.16L2124.48 1352.88L2120.13 1353.54L2115.93 1354.14L2111.86 1354.68L2107.92 1355.16L2104.13 1355.58L2100.46 1355.94L2096.93 1356.24L2101.50 1355.92L2101.50 1410.50L2664.50 1410.50L2664.50 1356.14L2669.70 1356.36L2666.59 1356.18L2663.35 1355.95L2660.00 1355.67L2656.52 1355.33L2652.92 1354.95L2649.19 1354.51L2645.34 1354.03L2641.37 1353.49L2637.27 1352.91L2633.04 1352.28L2628.69 1351.59L2624.21 1350.86L2619.61 1350.08L2614.88 1349.24L2610.02 1348.36L2605.03 1347.43L2599.92 1346.44L2594.67 1345.41L2589.28 1344.33L2583.84 1343.18L2578.47 1341.97L2573.20 1340.70L2568.03 1339.38L2562.95 1338.00L2557.97 1336.56L2553.09 1335.06L2548.30 1333.50L2543.61 1331.88L2539.01 1330.21L2534.52 1328.47L2530.11 1326.68L2525.81 1324.83L2521.60 1322.91L2517.49 1320.93L2513.47 1318.90L2509.55 1316.80L2505.73 1314.64L2502.01 1312.42L2498.24 1310.05L2494.46 1307.31L2490.81 1304.31L2487.31 1301.06L2483.95 1297.56L2480.73 1293.81L2477.64 1289.83L2474.69 1285.60L2471.87 1281.14L2469.19 1276.45L2466.63 1271.52L2464.20 1266.36L2461.89 1260.98L2459.70 1255.36L2457.63 1249.51L2455.68 1243.42L2453.85 1237.11L2452.13 1230.56L2450.52 1223.78L2449.02 1216.76L2447.64 1209.53L2446.35 1202.13L2445.13 1194.59L2443.98 1186.89L2442.89 1179.04L2441.87 1171.03L2440.92 1162.86L2440.04 1154.54L2439.22 1146.06L2438.46 1137.42L2437.77 1128.63L2437.15 1119.67L2436.59 1110.56L2436.10 1101.30L2435.68 1091.87L2435.32 1082.29L2435.02 1072.55L2434.79 1062.65L2434.63 1052.59L2434.53 1042.37L2434.50 1032.01L2434.50 415.04L2434.38 403.46L2434.02 392.07L2433.41 380.85L2432.57 369.78L2431.49 358.88L2430.17 348.13L2428.60 337.54L2426.80 327.11L2424.76 316.84L2422.48 306.73L2419.96 296.77L2417.21 286.97L2414.21 277.33L2410.98 267.84L2407.51 258.51L2403.80 249.34L2399.86 240.31L2395.67 231.45L2391.25 222.73L2386.59 214.16L2381.71 205.71L2376.67 197.39L2371.48 189.24L2366.14 181.24L2360.65 173.39L2355.01 165.69L2349.22 158.15L2343.28 150.76L2337.18 143.53L2330.94 136.44L2324.54 129.51L2317.99 122.74L2311.29 116.11L2304.44 109.63L2297.44 103.31L2290.28 97.14L2282.97 91.12L2275.51 85.25L2267.89 79.53L2260.15 73.98L2252.39 68.77L2244.54 63.67L2236.65 58.72L2228.72 53.93L2220.75 49.29L2212.74 44.79L2204.69 40.45L2196.59 36.26L2188.46 32.22L2180.29 28.33L2172.07 24.59L2163.82 21.00L2155.52 17.57L2147.19 14.28L2138.81 11.14L2130.39 8.16L2121.93 5.32L2113.42 2.63L2104.88 0.10L2096.28 -2.29L2087.66 -4.56L2079.06 -6.71L2070.50 -8.74L2061.98 -10.66L2053.51 -12.46L2045.06 -14.14L2036.66 -15.71L2028.30 -17.16L2019.98 -18.49L2011.69 -19.71L2003.45 -20.81L1995.24 -21.79L1987.08 -22.66L1978.95 -23.42L1970.86 -24.05L1962.81 -24.57L1954.80 -24.98L1946.83 -25.27L1938.89 -25.44L1931.00 -25.50L1918.38 -25.42L1905.91 -25.17L1893.58 -24.75L1881.38 -24.17L1869.34 -23.43L1857.43 -22.51L1845.67 -21.44L1834.05 -20.20L1822.57 -18.79L1811.24 -17.22L1800.04 -15.48L1788.99 -13.58L1778.08 -11.51L1767.32 -9.28L1756.69 -6.88L1746.21 -4.32L1735.87 -1.60L1725.67 1.29L1715.62 4.34L1705.69 7.56L1695.91 10.93L1686.27 14.41L1676.80 18.00L1667.49 21.71L1658.34 25.53L1649.36 29.47L1640.54 33.52L1631.87 37.69L1623.37 41.97L1615.03 46.36L1606.85 50.86L1598.83 55.48L1590.98 60.22L1583.28 65.06L1575.74 70.02L1568.37 75.09L1561.15 80.28L1554.10 85.58L1547.20 90.99L1540.48 96.50L1534.02 102.11L1527.69 107.82L1521.52 113.61L1515.53 119.48L1509.69 125.42L1504.02 131.45L1498.51 137.55L1493.17 143.73L1487.99 149.99L1482.97 156.33L1478.12 162.74L1473.43 169.24L1468.90 175.82L1464.53 182.47L1460.32 189.20L1456.28 196.02L1452.40 202.91L1448.67 209.88L1445.11 216.93L1441.71 224.07L1438.47 231.27L1435.40 238.51L1432.49 245.77L1429.75 253.06L1427.17 260.39L1424.77 267.74L1422.53 275.13L1420.45 282.54L1418.54 289.99L1416.80 297.46L1415.22 304.97L1413.81 312.51L1412.57 320.08L1411.49 327.69L1410.58 335.32L1409.83 342.99L1409.25 350.69L1408.83 358.43L1408.58 366.20L1408.50 374.05Z"
    />
    <circle cx="2920" cy="1650" r="90" />
  </g>
</svg>
